<svg width="179" height="58" viewBox="0 0 179 58" fill="none" xmlns="http://www.w3.org/2000/svg">
<path d="M36.0001 11.2258C36.0001 5.02598 41.0262 0 47.2259 0C53.4257 0 58.4517 5.02598 58.4517 11.2258C58.4517 17.4256 53.4257 22.4516 47.2259 22.4516C41.0262 22.4516 36.0001 17.4256 36.0001 11.2258Z" fill="#FFAD0E"/>
<path d="M47.454 27.4266V35.5047C47.454 39.0839 47.4515 41.6159 47.2875 43.5942C47.1259 45.5418 46.8197 46.7287 46.3358 47.6592C45.394 49.4721 43.916 50.9508 42.1024 51.8925C41.1719 52.3765 39.9851 52.6827 38.0374 52.8442C36.0592 53.0083 33.5271 53.0107 29.9483 53.0107H22.4948C18.9158 53.0107 16.384 53.0083 14.406 52.8442C12.4579 52.6827 11.2715 52.3765 10.3407 51.8925C8.52749 50.9508 7.04906 49.4721 6.10715 47.6592C5.62363 46.7287 5.31748 45.5418 5.15564 43.5942C4.99143 41.6159 4.98937 39.0839 4.98937 35.5047V28.0516C4.98937 24.4725 4.99143 21.9407 5.15564 19.9627C5.31748 18.0146 5.62363 16.8282 6.10715 15.8974C7.04906 14.0842 8.52749 12.6058 10.3407 11.6639C11.2715 11.1803 12.4579 10.8742 14.406 10.7124C16.384 10.5481 18.9157 10.5461 22.4948 10.5461H30.5732C30.6453 8.79734 30.9945 7.12002 31.5776 5.55689H22.3839C18.9407 5.55682 16.2018 5.55683 13.9931 5.74024C11.7309 5.92809 9.80243 6.32124 8.04079 7.23633C5.31629 8.65159 3.09489 10.8731 1.67963 13.5976C0.764538 15.3591 0.371386 17.2876 0.18354 19.5498C0.000123148 21.7585 0.00012207 24.4974 0.00012207 27.9406V35.6157C0.00012207 39.0589 0.000123148 41.798 0.18354 44.007C0.371386 46.269 0.764538 48.1974 1.67963 49.9592C3.09489 52.6833 5.31629 54.9048 8.04079 56.3205C9.80243 57.2354 11.7309 57.6283 13.9931 57.8166C16.2018 58 18.9406 58 22.3838 58H30.0592C33.5022 58 36.2413 58 38.4503 57.8166C40.7123 57.6283 42.6406 57.2354 44.4024 56.3205C47.1266 54.9048 49.348 52.6833 50.7637 49.9592C51.6786 48.1974 52.0715 46.269 52.2599 44.007C52.4432 41.798 52.4432 39.0589 52.4432 35.6164V26.4221C50.8797 27.0054 49.2027 27.3545 47.454 27.4266Z" fill="black"/>
<path d="M90.1089 26.9987C90.1089 28.5304 89.7397 29.9663 89.0013 31.3069C88.2904 32.6471 87.1553 33.7273 85.5962 34.548C84.0645 35.3681 82.1224 35.7785 79.77 35.7785H74.9697V46.7742H69.2258V18.1368H79.77C81.9858 18.1368 83.873 18.5197 85.4322 19.2856C86.9907 20.0514 88.1532 21.1044 88.919 22.4446C89.7123 23.7849 90.1089 25.3029 90.1089 26.9987ZM79.5236 31.1425C81.1102 31.1425 82.2864 30.787 83.0523 30.0758C83.8181 29.3373 84.2011 28.3116 84.2011 26.9987C84.2011 24.2088 82.6419 22.8139 79.5236 22.8139H74.9697V31.1425H79.5236Z" fill="black"/>
<path d="M130.354 46.5432C128.166 46.5432 126.197 46.0642 124.446 45.1069C122.696 44.1221 121.315 42.7414 120.303 40.9633C119.318 39.1853 118.826 37.1341 118.826 34.8091C118.826 32.4841 119.332 30.4329 120.344 28.655C121.383 26.8772 122.792 25.5096 124.57 24.5523C126.347 23.5676 128.33 23.0753 130.519 23.0753C132.707 23.0753 134.69 23.5676 136.468 24.5523C138.245 25.5096 139.64 26.8772 140.653 28.655C141.692 30.4329 142.212 32.4841 142.212 34.8091C142.212 37.1341 141.678 39.1853 140.611 40.9633C139.572 42.7414 138.15 44.1221 136.344 45.1069C134.566 46.0642 132.57 46.5432 130.354 46.5432ZM130.354 41.5377C131.394 41.5377 132.365 41.2914 133.267 40.7993C134.197 40.2798 134.936 39.514 135.483 38.5018C136.03 37.4896 136.303 36.2591 136.303 34.8091C136.303 32.6481 135.729 30.9936 134.58 29.8448C133.459 28.6687 132.077 28.0807 130.436 28.0807C128.796 28.0807 127.414 28.6687 126.293 29.8448C125.198 30.9936 124.651 32.6481 124.651 34.8091C124.651 36.9701 125.185 38.6383 126.252 39.8146C127.346 40.9633 128.713 41.5377 130.354 41.5377Z" fill="black"/>
<path d="M104.161 46.5432C101.973 46.5432 100.003 46.0642 98.2527 45.1069C96.5021 44.1221 95.1213 42.7414 94.1091 40.9633C93.1243 39.1853 92.6323 37.1341 92.6323 34.8091C92.6323 32.4841 93.1381 30.4329 94.1502 28.655C95.1893 26.8772 96.5981 25.5096 98.3761 24.5523C100.154 23.5676 102.137 23.0753 104.325 23.0753C106.513 23.0753 108.496 23.5676 110.274 24.5523C112.052 25.5096 113.447 26.8772 114.459 28.655C115.498 30.4329 116.018 32.4841 116.018 34.8091C116.018 37.1341 115.484 39.1853 114.418 40.9633C113.378 42.7414 111.956 44.1221 110.151 45.1069C108.373 46.0642 106.376 46.5432 104.161 46.5432ZM104.161 41.5377C105.2 41.5377 106.171 41.2914 107.074 40.7993C108.004 40.2798 108.743 39.514 109.289 38.5018C109.836 37.4896 110.11 36.2591 110.11 34.8091C110.11 32.6481 109.535 30.9936 108.386 29.8448C107.265 28.6687 105.884 28.0807 104.243 28.0807C102.602 28.0807 101.221 28.6687 100.099 29.8448C99.0048 30.9936 98.4578 32.6481 98.4578 34.8091C98.4578 36.9701 98.9911 38.6383 100.058 39.8146C101.152 40.9633 102.52 41.5377 104.161 41.5377Z" fill="black"/>
<path d="M145.019 34.914C145.019 32.6164 145.47 30.5785 146.373 28.8006C147.303 27.0227 148.561 25.6551 150.148 24.6978C151.734 23.7405 153.498 23.2619 155.44 23.2619C156.917 23.2619 158.326 23.5901 159.666 24.2465C161.006 24.8756 162.073 25.7235 162.866 26.7902V16H168.692V46.3606H162.866V42.9959C162.155 44.1173 161.156 45.0203 159.871 45.7039C158.586 46.388 157.095 46.7298 155.399 46.7298C153.484 46.7298 151.734 46.2371 150.148 45.253C148.561 44.2682 147.303 42.8868 146.373 41.1088C145.47 39.3039 145.019 37.2384 145.019 34.914ZM162.907 34.9957C162.907 33.6006 162.634 32.4113 162.087 31.4265C161.539 30.4143 160.801 29.6485 159.871 29.1288C158.941 28.5818 157.943 28.3083 156.876 28.3083C155.809 28.3083 154.824 28.5681 153.922 29.0878C153.02 29.6075 152.281 30.3733 151.707 31.3853C151.16 32.3701 150.886 33.5463 150.886 34.914C150.886 36.281 151.16 37.4847 151.707 38.5243C152.281 39.5359 153.02 40.3155 153.922 40.8624C154.852 41.41 155.837 41.6831 156.876 41.6831C157.943 41.6831 158.941 41.4237 159.871 40.9036C160.801 40.3566 161.539 39.5908 162.087 38.606C162.634 37.5945 162.907 36.3908 162.907 34.9957Z" fill="black"/>
<path d="M174.569 46.7286C173.53 46.7286 172.668 46.4137 171.985 45.785C171.328 45.1283 171 44.3213 171 43.364C171 42.4067 171.328 41.6134 171.985 40.9848C172.668 40.328 173.53 40 174.569 40C175.581 40 176.416 40.328 177.072 40.9848C177.729 41.6134 178.057 42.4067 178.057 43.364C178.057 44.3213 177.729 45.1283 177.072 45.785C176.416 46.4137 175.581 46.7286 174.569 46.7286Z" fill="#FFAD0E"/>
</svg>
