<svg width="270" height="95" viewBox="0 0 270 95" fill="none" xmlns="http://www.w3.org/2000/svg">
<rect width="270" height="95" fill="#1E1E1E"/>
<g id="Slide 16:9 - 1" clip-path="url(#clip0_0_1)">
<rect width="1920" height="6432" transform="translate(-116 -5982)" fill="white"/>
<rect id="Rectangle 61" x="-116" y="-364" width="1920" height="814" fill="#171717"/>
<g id="Group 44">
<g id="logo">
<g id="Group 35">
<g id="Vector" filter="url(#filter0_d_0_1)">
<path d="M57.7806 16.7703C57.7806 7.50834 65.2891 0 74.5509 0C83.8128 0 91.3212 7.50834 91.3212 16.7703C91.3212 26.0323 83.8128 33.5406 74.5509 33.5406C65.2891 33.5406 57.7806 26.0323 57.7806 16.7703Z" fill="#FFAD0E"/>
</g>
<g id="Vector_2" filter="url(#filter1_d_0_1)">
<path d="M74.8917 40.972V53.04C74.8917 58.387 74.8879 62.1696 74.6429 65.1249C74.4016 68.0346 73.9441 69.8075 73.2212 71.1976C71.8143 73.906 69.6062 76.115 66.8969 77.5219C65.5068 78.2449 63.7338 78.7023 60.8242 78.9436C57.8689 79.1887 54.0862 79.1924 48.7399 79.1924H37.605C32.2583 79.1924 28.476 79.1887 25.5211 78.9436C22.6108 78.7023 20.8385 78.2449 19.4479 77.5219C16.7392 76.115 14.5305 73.906 13.1234 71.1976C12.4011 69.8075 11.9437 68.0346 11.7019 65.1249C11.4566 62.1696 11.4535 58.387 11.4535 53.04V41.9058C11.4535 36.5589 11.4566 32.7767 11.7019 29.8217C11.9437 26.9114 12.4011 25.1391 13.1234 23.7486C14.5305 21.0398 16.7392 18.8311 19.4479 17.424C20.8385 16.7017 22.6108 16.2443 25.5211 16.0026C28.476 15.7572 32.2582 15.7543 37.605 15.7543H49.6734C49.7811 13.1417 50.3027 10.636 51.1738 8.30078H37.4393C32.2956 8.30069 28.2038 8.30069 24.9042 8.5747C21.5247 8.85532 18.6438 9.44266 16.0121 10.8097C11.9419 12.924 8.62335 16.2426 6.50909 20.3128C5.14203 22.9444 4.55469 25.8254 4.27407 29.2049C4.00006 32.5044 4.00006 36.5962 4.00006 41.7399V53.2059C4.00006 58.3497 4.00006 62.4417 4.27407 65.7417C4.55469 69.1209 5.14203 72.0017 6.50909 74.6337C8.62335 78.7033 11.9419 82.0219 16.0121 84.1368C18.6438 85.5036 21.5247 86.0906 24.9042 86.3719C28.2038 86.6459 32.2954 86.6459 37.4391 86.6459H48.9055C54.049 86.6459 58.1409 86.6459 61.441 86.3719C64.8202 86.0906 67.7009 85.5036 70.3329 84.1368C74.4025 82.0219 77.7212 78.7033 79.8361 74.6337C81.2029 72.0017 81.7898 69.1209 82.0712 65.7417C82.3451 62.4417 82.3451 58.3497 82.3451 53.2068V39.4715C80.0094 40.3429 77.5041 40.8643 74.8917 40.972Z" fill="white"/>
</g>
</g>
<path id="Vector_3" d="M138.614 40.3337C138.614 42.6219 138.063 44.767 136.96 46.7696C135.897 48.7718 134.202 50.3855 131.873 51.6116C129.584 52.8368 126.683 53.4498 123.169 53.4498H115.998V69.8763H107.417V27.0947H123.169C126.479 27.0947 129.298 27.6668 131.628 28.8109C133.956 29.955 135.692 31.5281 136.837 33.5302C138.022 35.5324 138.614 37.8002 138.614 40.3337ZM122.801 46.5241C125.171 46.5241 126.928 45.9929 128.072 44.9305C129.216 43.8272 129.788 42.295 129.788 40.3337C129.788 36.1658 127.459 34.0819 122.801 34.0819H115.998V46.5241H122.801Z" fill="white"/>
<path id="Vector_4" d="M198.737 69.531C195.468 69.531 192.526 68.8155 189.911 67.3854C187.296 65.9142 185.233 63.8515 183.721 61.1953C182.25 58.539 181.514 55.4747 181.514 52.0014C181.514 48.5281 182.27 45.4638 183.782 42.8078C185.334 40.1519 187.439 38.1088 190.095 36.6787C192.751 35.2076 195.713 34.4722 198.983 34.4722C202.251 34.4722 205.214 35.2076 207.87 36.6787C210.525 38.1088 212.609 40.1519 214.122 42.8078C215.674 45.4638 216.451 48.5281 216.451 52.0014C216.451 55.4747 215.653 58.539 214.06 61.1953C212.507 63.8515 210.383 65.9142 207.685 67.3854C205.029 68.8155 202.047 69.531 198.737 69.531ZM198.737 62.0533C200.29 62.0533 201.74 61.6853 203.089 60.9502C204.478 60.1741 205.582 59.03 206.399 57.5179C207.216 56.0058 207.624 54.1676 207.624 52.0014C207.624 48.7731 206.766 46.3014 205.05 44.5852C203.375 42.8282 201.311 41.9498 198.86 41.9498C196.408 41.9498 194.345 42.8282 192.67 44.5852C191.034 46.3014 190.217 48.7731 190.217 52.0014C190.217 55.2297 191.014 57.722 192.608 59.4791C194.242 61.1953 196.285 62.0533 198.737 62.0533Z" fill="white"/>
<path id="Vector_5" d="M159.606 69.531C156.338 69.531 153.395 68.8155 150.78 67.3854C148.165 65.9142 146.102 63.8515 144.59 61.1953C143.119 58.539 142.384 55.4747 142.384 52.0014C142.384 48.5281 143.139 45.4638 144.651 42.8078C146.204 40.1519 148.308 38.1088 150.965 36.6787C153.62 35.2076 156.583 34.4722 159.852 34.4722C163.12 34.4722 166.083 35.2076 168.739 36.6787C171.394 38.1088 173.479 40.1519 174.991 42.8078C176.543 45.4638 177.32 48.5281 177.32 52.0014C177.32 55.4747 176.522 58.539 174.929 61.1953C173.376 63.8515 171.252 65.9142 168.555 67.3854C165.898 68.8155 162.916 69.531 159.606 69.531ZM159.606 62.0533C161.159 62.0533 162.61 61.6853 163.958 60.9502C165.347 60.1741 166.451 59.03 167.268 57.5179C168.085 56.0058 168.493 54.1676 168.493 52.0014C168.493 48.7731 167.635 46.3014 165.919 44.5852C164.244 42.8282 162.18 41.9498 159.729 41.9498C157.278 41.9498 155.214 42.8282 153.539 44.5852C151.904 46.3014 151.087 48.7731 151.087 52.0014C151.087 55.2297 151.883 57.722 153.477 59.4791C155.111 61.1953 157.155 62.0533 159.606 62.0533Z" fill="white"/>
<path id="Vector_6" d="M220.645 52.1581C220.645 48.7257 221.319 45.6812 222.668 43.0252C224.057 40.3693 225.936 38.3262 228.306 36.8961C230.677 35.4659 233.311 34.7509 236.213 34.7509C238.42 34.7509 240.524 35.2412 242.526 36.2219C244.528 37.1617 246.122 38.4284 247.306 40.022V23.9023H256.01V69.2582H247.306V64.2318C246.244 65.9069 244.753 67.256 242.832 68.2771C240.912 69.2992 238.685 69.8097 236.151 69.8097C233.291 69.8097 230.677 69.0737 228.306 67.6035C225.936 66.1324 224.057 64.0687 222.668 61.4125C221.319 58.7162 220.645 55.6305 220.645 52.1581ZM247.368 52.2801C247.368 50.1959 246.96 48.4192 246.143 46.9481C245.325 45.436 244.221 44.292 242.832 43.5156C241.443 42.6983 239.952 42.2898 238.358 42.2898C236.764 42.2898 235.293 42.6779 233.945 43.4543C232.597 44.2307 231.494 45.3748 230.636 46.8866C229.819 48.3577 229.41 50.1149 229.41 52.1581C229.41 54.2003 229.819 55.9985 230.636 57.5516C231.494 59.0628 232.597 60.2274 233.945 61.0445C235.334 61.8625 236.805 62.2706 238.358 62.2706C239.952 62.2706 241.443 61.883 242.832 61.106C244.221 60.2889 245.325 59.1448 246.143 57.6736C246.96 56.1624 247.368 54.3643 247.368 52.2801Z" fill="white"/>
<path id="Vector_7" d="M264.79 69.8083C263.238 69.8083 261.95 69.3378 260.929 68.3986C259.948 67.4176 259.458 66.212 259.458 64.7819C259.458 63.3517 259.948 62.1666 260.929 61.2275C261.95 60.2464 263.238 59.7563 264.79 59.7563C266.302 59.7563 267.549 60.2464 268.529 61.2275C269.51 62.1666 270 63.3517 270 64.7819C270 66.212 269.51 67.4176 268.529 68.3986C267.549 69.3378 266.302 69.8083 264.79 69.8083Z" fill="#FFAD0E"/>
</g>
</g>
</g>
<defs>
<filter id="filter0_d_0_1" x="53.7806" y="0" width="41.5406" height="41.5405" filterUnits="userSpaceOnUse" color-interpolation-filters="sRGB">
<feFlood flood-opacity="0" result="BackgroundImageFix"/>
<feColorMatrix in="SourceAlpha" type="matrix" values="0 0 0 0 0 0 0 0 0 0 0 0 0 0 0 0 0 0 127 0" result="hardAlpha"/>
<feOffset dy="4"/>
<feGaussianBlur stdDeviation="2"/>
<feComposite in2="hardAlpha" operator="out"/>
<feColorMatrix type="matrix" values="0 0 0 0 0 0 0 0 0 0 0 0 0 0 0 0 0 0 0.25 0"/>
<feBlend mode="normal" in2="BackgroundImageFix" result="effect1_dropShadow_0_1"/>
<feBlend mode="normal" in="SourceGraphic" in2="effect1_dropShadow_0_1" result="shape"/>
</filter>
<filter id="filter1_d_0_1" x="6.10352e-05" y="8.30078" width="86.3451" height="86.3452" filterUnits="userSpaceOnUse" color-interpolation-filters="sRGB">
<feFlood flood-opacity="0" result="BackgroundImageFix"/>
<feColorMatrix in="SourceAlpha" type="matrix" values="0 0 0 0 0 0 0 0 0 0 0 0 0 0 0 0 0 0 127 0" result="hardAlpha"/>
<feOffset dy="4"/>
<feGaussianBlur stdDeviation="2"/>
<feComposite in2="hardAlpha" operator="out"/>
<feColorMatrix type="matrix" values="0 0 0 0 0 0 0 0 0 0 0 0 0 0 0 0 0 0 0.25 0"/>
<feBlend mode="normal" in2="BackgroundImageFix" result="effect1_dropShadow_0_1"/>
<feBlend mode="normal" in="SourceGraphic" in2="effect1_dropShadow_0_1" result="shape"/>
</filter>
<clipPath id="clip0_0_1">
<rect width="1920" height="6432" fill="white" transform="translate(-116 -5982)"/>
</clipPath>
</defs>
</svg>
